<mxfile host="app.diagrams.net" agent="Mozilla/5.0 (Windows NT 10.0; Win64; x64) AppleWebKit/537.36 (KHTML, like Gecko) Chrome/136.0.0.0 Safari/537.36 Edg/136.0.0.0" version="27.0.6">
  <diagram name="第 1 页" id="tKHoSvjIAckEMtEq9J0e">
    <mxGraphModel dx="978" dy="521" grid="1" gridSize="10" guides="1" tooltips="1" connect="1" arrows="1" fold="1" page="1" pageScale="1" pageWidth="827" pageHeight="1169" math="0" shadow="0">
      <root>
        <mxCell id="0" />
        <mxCell id="1" parent="0" />
        <mxCell id="Vhsy5_yDmKcxMi5bhZBk-1" value="" style="rounded=0;whiteSpace=wrap;html=1;fillColor=none;" vertex="1" parent="1">
          <mxGeometry y="360" width="80" height="40" as="geometry" />
        </mxCell>
        <mxCell id="Vhsy5_yDmKcxMi5bhZBk-2" value="" style="endArrow=classic;html=1;rounded=0;" edge="1" parent="1">
          <mxGeometry width="50" height="50" relative="1" as="geometry">
            <mxPoint x="80" y="379.83" as="sourcePoint" />
            <mxPoint x="110" y="380" as="targetPoint" />
          </mxGeometry>
        </mxCell>
        <mxCell id="Vhsy5_yDmKcxMi5bhZBk-7" value="" style="rounded=0;whiteSpace=wrap;html=1;fillColor=none;" vertex="1" parent="1">
          <mxGeometry x="110" y="360" width="80" height="40" as="geometry" />
        </mxCell>
        <mxCell id="Vhsy5_yDmKcxMi5bhZBk-8" value="" style="endArrow=classic;html=1;rounded=0;" edge="1" parent="1">
          <mxGeometry width="50" height="50" relative="1" as="geometry">
            <mxPoint x="190" y="379.83" as="sourcePoint" />
            <mxPoint x="220" y="380" as="targetPoint" />
          </mxGeometry>
        </mxCell>
        <mxCell id="Vhsy5_yDmKcxMi5bhZBk-9" value="" style="rounded=0;whiteSpace=wrap;html=1;fillColor=none;" vertex="1" parent="1">
          <mxGeometry x="220" y="360" width="80" height="40" as="geometry" />
        </mxCell>
        <mxCell id="Vhsy5_yDmKcxMi5bhZBk-10" value="" style="endArrow=classic;html=1;rounded=0;" edge="1" parent="1">
          <mxGeometry width="50" height="50" relative="1" as="geometry">
            <mxPoint x="300" y="379.83" as="sourcePoint" />
            <mxPoint x="330" y="380" as="targetPoint" />
          </mxGeometry>
        </mxCell>
        <mxCell id="Vhsy5_yDmKcxMi5bhZBk-11" value="" style="rounded=0;whiteSpace=wrap;html=1;fillColor=none;" vertex="1" parent="1">
          <mxGeometry x="330" y="240" width="136" height="280" as="geometry" />
        </mxCell>
        <mxCell id="Vhsy5_yDmKcxMi5bhZBk-12" value="" style="rounded=0;whiteSpace=wrap;html=1;fillColor=none;" vertex="1" parent="1">
          <mxGeometry x="560" y="240" width="136" height="120" as="geometry" />
        </mxCell>
        <mxCell id="Vhsy5_yDmKcxMi5bhZBk-16" value="信号调理" style="text;html=1;align=center;verticalAlign=middle;whiteSpace=wrap;rounded=0;" vertex="1" parent="1">
          <mxGeometry x="120" y="365" width="60" height="30" as="geometry" />
        </mxCell>
        <mxCell id="Vhsy5_yDmKcxMi5bhZBk-17" value="输入信号" style="text;html=1;align=center;verticalAlign=middle;whiteSpace=wrap;rounded=0;" vertex="1" parent="1">
          <mxGeometry x="10" y="365" width="60" height="30" as="geometry" />
        </mxCell>
        <mxCell id="Vhsy5_yDmKcxMi5bhZBk-18" value="AD9226" style="text;html=1;align=center;verticalAlign=middle;whiteSpace=wrap;rounded=0;" vertex="1" parent="1">
          <mxGeometry x="230" y="365" width="60" height="30" as="geometry" />
        </mxCell>
        <mxCell id="Vhsy5_yDmKcxMi5bhZBk-19" value="FPGA" style="text;html=1;align=center;verticalAlign=middle;whiteSpace=wrap;rounded=0;" vertex="1" parent="1">
          <mxGeometry x="368" y="365" width="60" height="30" as="geometry" />
        </mxCell>
        <mxCell id="Vhsy5_yDmKcxMi5bhZBk-20" value="PC" style="text;html=1;align=center;verticalAlign=middle;whiteSpace=wrap;rounded=0;" vertex="1" parent="1">
          <mxGeometry x="598" y="285" width="60" height="30" as="geometry" />
        </mxCell>
        <mxCell id="Vhsy5_yDmKcxMi5bhZBk-21" value="UART" style="text;html=1;align=center;verticalAlign=middle;whiteSpace=wrap;rounded=0;" vertex="1" parent="1">
          <mxGeometry x="480" y="230" width="60" height="30" as="geometry" />
        </mxCell>
        <mxCell id="Vhsy5_yDmKcxMi5bhZBk-23" value="以太网" style="text;html=1;align=center;verticalAlign=middle;whiteSpace=wrap;rounded=0;" vertex="1" parent="1">
          <mxGeometry x="480" y="290" width="60" height="30" as="geometry" />
        </mxCell>
        <mxCell id="Vhsy5_yDmKcxMi5bhZBk-24" value="" style="endArrow=classic;startArrow=classic;html=1;rounded=0;entryX=0;entryY=0.143;entryDx=0;entryDy=0;entryPerimeter=0;" edge="1" parent="1">
          <mxGeometry width="50" height="50" relative="1" as="geometry">
            <mxPoint x="466" y="260" as="sourcePoint" />
            <mxPoint x="560" y="260.03999999999996" as="targetPoint" />
          </mxGeometry>
        </mxCell>
        <mxCell id="Vhsy5_yDmKcxMi5bhZBk-26" value="" style="rounded=0;whiteSpace=wrap;html=1;fillColor=none;" vertex="1" parent="1">
          <mxGeometry x="230" y="480" width="70" height="40" as="geometry" />
        </mxCell>
        <mxCell id="Vhsy5_yDmKcxMi5bhZBk-27" value="" style="endArrow=classic;html=1;rounded=0;" edge="1" parent="1">
          <mxGeometry width="50" height="50" relative="1" as="geometry">
            <mxPoint x="300" y="499.71" as="sourcePoint" />
            <mxPoint x="330" y="499.88" as="targetPoint" />
          </mxGeometry>
        </mxCell>
        <mxCell id="Vhsy5_yDmKcxMi5bhZBk-28" value="晶振" style="text;html=1;align=center;verticalAlign=middle;whiteSpace=wrap;rounded=0;" vertex="1" parent="1">
          <mxGeometry x="235" y="485" width="60" height="30" as="geometry" />
        </mxCell>
        <mxCell id="Vhsy5_yDmKcxMi5bhZBk-29" value="" style="rounded=0;whiteSpace=wrap;html=1;fillColor=none;" vertex="1" parent="1">
          <mxGeometry x="330" y="700" width="136" height="150" as="geometry" />
        </mxCell>
        <mxCell id="Vhsy5_yDmKcxMi5bhZBk-30" value="FPGA" style="text;html=1;align=center;verticalAlign=middle;whiteSpace=wrap;rounded=0;" vertex="1" parent="1">
          <mxGeometry x="368" y="695" width="60" height="30" as="geometry" />
        </mxCell>
        <mxCell id="Vhsy5_yDmKcxMi5bhZBk-31" value="" style="rounded=0;whiteSpace=wrap;html=1;fillColor=none;" vertex="1" parent="1">
          <mxGeometry x="560" y="400" width="136" height="120" as="geometry" />
        </mxCell>
        <mxCell id="Vhsy5_yDmKcxMi5bhZBk-32" value="DDR3" style="text;html=1;align=center;verticalAlign=middle;whiteSpace=wrap;rounded=0;" vertex="1" parent="1">
          <mxGeometry x="598" y="445" width="60" height="30" as="geometry" />
        </mxCell>
        <mxCell id="Vhsy5_yDmKcxMi5bhZBk-33" value="AXI" style="text;html=1;align=center;verticalAlign=middle;whiteSpace=wrap;rounded=0;" vertex="1" parent="1">
          <mxGeometry x="480" y="440" width="60" height="30" as="geometry" />
        </mxCell>
        <mxCell id="Vhsy5_yDmKcxMi5bhZBk-34" value="" style="endArrow=classic;startArrow=classic;html=1;rounded=0;entryX=0;entryY=0.143;entryDx=0;entryDy=0;entryPerimeter=0;" edge="1" parent="1">
          <mxGeometry width="50" height="50" relative="1" as="geometry">
            <mxPoint x="466" y="470" as="sourcePoint" />
            <mxPoint x="560" y="470" as="targetPoint" />
          </mxGeometry>
        </mxCell>
        <mxCell id="Vhsy5_yDmKcxMi5bhZBk-36" value="" style="endArrow=classic;html=1;rounded=0;entryX=0;entryY=0.667;entryDx=0;entryDy=0;entryPerimeter=0;" edge="1" parent="1" target="Vhsy5_yDmKcxMi5bhZBk-12">
          <mxGeometry width="50" height="50" relative="1" as="geometry">
            <mxPoint x="466" y="320" as="sourcePoint" />
            <mxPoint x="516" y="270" as="targetPoint" />
          </mxGeometry>
        </mxCell>
      </root>
    </mxGraphModel>
  </diagram>
</mxfile>
